<svg xmlns="http://www.w3.org/2000/svg" xmlns:xlink="http://www.w3.org/1999/xlink" aria-hidden="true" focusable="false" width="1em" height="1em" style="-ms-transform: rotate(360deg); -webkit-transform: rotate(360deg); transform: rotate(360deg);" preserveAspectRatio="xMidYMid meet" viewBox="0 0 15 15"><g fill="none"><path fill-rule="evenodd" clip-rule="evenodd" d="M0 7.5a7.5 7.5 0 1 1 15 0a7.5 7.5 0 0 1-15 0zm3.305-1.631a4.502 4.502 0 0 1 7.409-1.519l.714-.7a5.502 5.502 0 0 0-9.176 2.2l-.09.29l6.699 6.699l.289-.09a5.504 5.504 0 0 0 3.823-4.7l.054-.549H9v1h2.889a4.51 4.51 0 0 1-2.758 3.195L3.305 5.87zm2.841 6.985l-4-4l.708-.708l4 4l-.708.708z" fill="white"/></g></svg>