<svg xmlns="http://www.w3.org/2000/svg" width="55" height="53" viewBox="0 0 55 53">
  <g id="グループ_7" data-name="グループ 7" transform="translate(-1450 -919)">
    <g id="楕円形_6" data-name="楕円形 6" transform="translate(1450 919)" fill="#fff" stroke="#707070" stroke-width="1">
      <ellipse cx="27.5" cy="26.5" rx="27.5" ry="26.5" stroke="none"/>
      <ellipse cx="27.5" cy="26.5" rx="27" ry="26" fill="none"/>
    </g>
    <g id="グループ_5" data-name="グループ 5" transform="translate(1459.979 927.981)">
      <path id="パス_1" data-name="パス 1" d="M2251.171,26.71c-1.9,2.027-4.483,2.694-7.61,3.011-6.331.64-11.815-2.187-12.479-9.251a13.825,13.825,0,0,1,1.734-8.2l-.785-3.085a.762.762,0,0,1,.89-.92l2.71.658a10.652,10.652,0,0,1,5.711-2.405,10.463,10.463,0,0,1,5.244.826l2.547-1.541a.753.753,0,0,1,1.132.611l.147,3.634h0a13.6,13.6,0,0,1,3.594,8.1,9.935,9.935,0,0,1-.5,4.52,1.568,1.568,0,0,0,.114,1.66c.393.5,1.015,1.472,1.71,1.309a3.99,3.99,0,0,1,2.852.252,17.641,17.641,0,1,0-2.861,3.942,4.157,4.157,0,0,1-1.684-.667A6.1,6.1,0,0,1,2251.171,26.71Z" transform="translate(-2225)" fill="#55c500"/>
      <path id="パス_2" data-name="パス 2" d="M2310.078,76.963l1.646-.2-.023-.3-1.689.207q-.109-.32-.244-.625l1.86-.594-.058-.372-1.978.685a7.308,7.308,0,0,0-7.444-4.143,7.633,7.633,0,0,0-6.6,5.652l-1.935-.293-.021.38,1.905.206a5.624,5.624,0,0,0-.126.576l-1.662.133.015.3,1.62-.129a5.857,5.857,0,0,0-.049.67l-1.48.605.073.367,1.409-.66c0,.2.012.3.031.5.392,4.166,3.872,4.99,8.029,4.57s7.418-1.926,7.027-6.092c-.019-.2-.048-.3-.081-.5l1.527.332.035-.336-1.6-.3A5.81,5.81,0,0,0,2310.078,76.963Z" transform="translate(-2285.534 -63.173)" fill="#55c500"/>
    </g>
  </g>
</svg>
